<svg xmlns="http://www.w3.org/2000/svg" viewBox="0 0 64 64"><defs><radialGradient id="g1" cx="36%" cy="30%" r="75%"><stop offset="0" stop-color="#fff7d1"/><stop offset=".42" stop-color="#ffd35c"/><stop offset="1" stop-color="#b86e0c"/></radialGradient><linearGradient id="g2" x1="0" y1="0" x2="0" y2="1"><stop offset="0" stop-color="#ffeaa8"/><stop offset=".5" stop-color="#e2a032"/><stop offset="1" stop-color="#8a4f08"/></linearGradient><radialGradient id="g3" cx="50%" cy="45%" r="60%"><stop offset="0" stop-color="#ffe391"/><stop offset="1" stop-color="#d4891c"/></radialGradient></defs><circle cx="32" cy="34.5" r="27.5" fill="#5a3005" opacity=".45"/><circle cx="32" cy="32" r="27.5" fill="url(#g2)"/><g fill="#fff4c4" opacity=".55"><circle cx="56.60" cy="32.00" r="1.1"/><circle cx="53.30" cy="44.30" r="1.1"/><circle cx="44.30" cy="53.30" r="1.1"/><circle cx="32.00" cy="56.60" r="1.1"/><circle cx="19.70" cy="53.30" r="1.1"/><circle cx="10.70" cy="44.30" r="1.1"/><circle cx="7.40" cy="32.00" r="1.1"/><circle cx="10.70" cy="19.70" r="1.1"/><circle cx="19.70" cy="10.70" r="1.1"/><circle cx="32.00" cy="7.40" r="1.1"/><circle cx="44.30" cy="10.70" r="1.1"/><circle cx="53.30" cy="19.70" r="1.1"/></g><circle cx="32" cy="32" r="21.5" fill="url(#g3)" stroke="#9e5a0b" stroke-width="1.6"/><g fill="#fff1b8" opacity=".55" transform="translate(-.7 -.9)"><ellipse cx="32" cy="23.5" rx="3.6" ry="6.6" transform="rotate(0 32 32)"/><ellipse cx="32" cy="23.5" rx="3.6" ry="6.6" transform="rotate(72 32 32)"/><ellipse cx="32" cy="23.5" rx="3.6" ry="6.6" transform="rotate(144 32 32)"/><ellipse cx="32" cy="23.5" rx="3.6" ry="6.6" transform="rotate(216 32 32)"/><ellipse cx="32" cy="23.5" rx="3.6" ry="6.6" transform="rotate(288 32 32)"/></g><g fill="#a8620d" opacity=".85"><ellipse cx="32" cy="23.5" rx="3.6" ry="6.6" transform="rotate(0 32 32)"/><ellipse cx="32" cy="23.5" rx="3.6" ry="6.6" transform="rotate(72 32 32)"/><ellipse cx="32" cy="23.5" rx="3.6" ry="6.6" transform="rotate(144 32 32)"/><ellipse cx="32" cy="23.5" rx="3.6" ry="6.6" transform="rotate(216 32 32)"/><ellipse cx="32" cy="23.5" rx="3.6" ry="6.6" transform="rotate(288 32 32)"/></g><circle cx="32" cy="32" r="3.4" fill="#ffe7a0"/><path d="M13.5 25.5A20 20 0 0 1 27 12.5" fill="none" stroke="#fff" stroke-width="3.2" stroke-linecap="round" opacity=".75"/><polygon points="48.00,8.00 49.19,12.81 54.00,14.00 49.19,15.19 48.00,20.00 46.81,15.19 42.00,14.00 46.81,12.81" fill="#fff" opacity="0.9"/></svg>